<svg xmlns:svg="http://www.w3.org/2000/svg" xmlns="http://www.w3.org/2000/svg" version="1.0" width="180" height="185" id="svg2">
  <defs id="defs8"/>
  <path d="M 164.07,82.2 C 170.8,130.13 140.4,174 96.2,180.3 C 51.9,186.5 10.6,152.7 3.93,104.79 C -2.79,56.87 27.6,12.98 71.843612,6.7 C 116.1,0.5 157.4,34.3 164,82.21 L 164.07,82.2 z" id="1" style="fill-opacity:0.2"/>
  <path d="M 176.07,80.2 C 182.8,128 152.4,172.03 108.16,178.26 C 63.9,184.5 22.6,150.7 15.9,102.79 C 9.22,54.9 39.6,10.9 83.8,4.7 C 128,-1.5 169,32.3 176,80.2 L 176.07,80.2 z" id="2" style="fill:#2a852a;fill-opacity:1"/>
  <path d="M 160.057,82.470048 C 165.43,120.8 141.1,155.9 105.7,160.9 C 70.35,165.89 37.3,138.9 31.9,100.5 C 26.6,62.2 50.9,27 86.3,22 C 121.7,17.1 154.7,44 160.057,82.5 L 160.057,82.5 L 160.057,82.470048 z" id="3" style="fill:#98ff98;fill-opacity:1"/>
  <g transform="matrix(0.3436202,-3.0191839e-2,2.4028269e-2,0.4317634,31.352416,51.752937)" id="g2159" style="fill:none;fill-rule:evenodd;stroke:#2a852a;stroke-width:15.79822731;stroke-linecap:butt;stroke-linejoin:round;stroke-miterlimit:4;stroke-dasharray:none;stroke-opacity:1">
    <path d="M 136.84431,45.577813 C 138.00846,44.676382 148.95997,29.897808 179.14834,23.849667 C 202.85888,18.748572 211.65981,20.956969 237.04423,23.833211 C 298.67511,65.238836 298.64263,64.977239 348.04592,98.859185 C 347.90149,114.01336 348.45299,118.18882 348.04723,126.74037 C 288.31801,122.31753 264.07134,139.16156 229.91456,159.41378 C 176.65023,156.58667 120.35451,174.0124 91.54999,194.46141 C 77.944308,201.50157 80.242971,196.25333 79.469055,196.06654 C 78.603332,195.8576 17.487422,92.868999 16.764721,91.423597 C 15.920047,89.734249 24.076149,68.2353 24.988579,67.779086 C 25.934777,67.305986 35.757654,52.971244 68.882609,43.377419 C 106.69519,32.425938 136.827,42.847643 138.21563,43.541958 C 141.13937,45.003829 219.94664,128.60843 221.18568,129.84747 C 179.51785,129.21728 129.10765,131.94887 89.169449,162.60042 C 88.272965,164.17394 30.357757,67.36486 29.165509,66.172612" id="path3139"/>
    <path d="M 221.84211,129.39218 C 255.94658,99.147354 302.81708,92.680986 346.69823,98.563333" id="path3141"/>
    <path d="M 89.91161,161.67342 C 85.739677,165.23107 79.73091,196.67515 82.284684,196.3215" id="path3143"/>
  </g>
</svg>